REM MD5 1c382f512e9a031dbbd76f75a396915f
FILE "San Francisco Rush - Extreme Racing (USA).bin" BINARY
  TRACK 01 MODE2/2352
    INDEX 01 00:00:00
  TRACK 02 AUDIO
    INDEX 01 04:46:35
  TRACK 03 AUDIO
    INDEX 01 08:46:26
  TRACK 04 AUDIO
    INDEX 01 12:14:10
  TRACK 05 AUDIO
    INDEX 01 16:19:68
REM LEADOUT 20:55:20
